<?xml version="1.0" encoding="utf-8"?>
<!-- Generator: Adobe Illustrator 19.0.0, SVG Export Plug-In . SVG Version: 6.00 Build 0)  -->
<svg version="1.1" id="Layer_1" xmlns="http://www.w3.org/2000/svg" xmlns:xlink="http://www.w3.org/1999/xlink" x="0px" y="0px"
	 viewBox="0 0 90 90" style="enable-background:new 0 0 90 90;" xml:space="preserve">
<style type="text/css">
	.st0{fill:#EA2226;}
	.st1{fill:none;}
	.st2{fill:#0A2041;}
	.st3{fill:#FFFFFF;}
</style>
<circle id="XMLID_87_" class="st0" cx="45" cy="45" r="45"/>
<g id="XMLID_153_">
	<path id="XMLID_154_" class="st1" d="M71.7,13.9c-0.9-0.8-1.8-1.5-2.8-2.2c-7.2,3.6-15.3,5.6-23.8,5.6c-8.6,0-16.7-2-24-5.7
		c-1,0.7-1.9,1.4-2.8,2.2c8,4.3,17.1,6.7,26.7,6.7C54.7,20.5,63.8,18.1,71.7,13.9z"/>
	<path id="XMLID_201_" class="st1" d="M45.1,48.2c2.8,0,5.1-1.9,5.7-4.5c12.1-0.9,23.5-4.4,33.6-10.1c-0.3-1.1-0.6-2.1-1-3.1
		c-9.7,5.6-20.8,9.1-32.5,9.9c-0.8-2.3-3-4.1-5.6-4.1s-4.8,1.7-5.6,4.1c-11.9-0.9-23.1-4.4-32.9-10.1c-0.4,1-0.8,2.1-1.1,3.2
		c10.1,5.7,21.6,9.4,33.8,10.2C40,46.3,42.3,48.2,45.1,48.2z M45.1,38.8c1.9,0,3.5,1.6,3.5,3.5s-1.6,3.5-3.5,3.5
		c-2,0-3.5-1.6-3.5-3.5S43.2,38.8,45.1,38.8z"/>
	<path id="XMLID_202_" class="st1" d="M70.6,60.8l-6.7,12.5c-6.1,0.3-12.5,0.5-19,0.5c-6.6,0-12.9-0.2-19-0.5L19,60.7
		c-4.7-1.3-9.2-2.9-13.6-4.7C10.3,73.3,26.1,86,45,86c18.8,0,34.7-12.7,39.5-30C80,57.9,75.4,59.5,70.6,60.8z"/>
	<path id="XMLID_203_" class="st2" d="M65.9,9.7C59.8,6.1,52.6,4,45,4c-7.6,0-14.7,2.1-20.8,5.7c6.4,2.9,13.5,4.5,20.9,4.5
		C52.5,14.2,59.5,12.6,65.9,9.7z"/>
	<path id="XMLID_204_" class="st2" d="M45.1,45.8c1.9,0,3.5-1.6,3.5-3.5s-1.6-3.5-3.5-3.5s-3.5,1.6-3.5,3.5S43.1,45.8,45.1,45.8z"/>
	<path id="XMLID_205_" class="st2" d="M45.2,36.3c2.6,0,4.8,1.7,5.6,4.1c11.8-0.8,22.8-4.4,32.5-9.9c-2.5-6.5-6.5-12.1-11.6-16.6
		c-7.9,4.2-17,6.6-26.6,6.6c-9.7,0-18.8-2.4-26.7-6.7c-5.1,4.4-9.2,10-11.6,16.4c9.8,5.7,21,9.2,32.9,10.1
		C40.4,38,42.6,36.3,45.2,36.3z"/>
	<path id="XMLID_207_" class="st2" d="M25.8,73.3c6.1,0.3,12.5,0.5,19,0.5c6.6,0,12.9-0.2,19-0.5l6.7-12.5c4.8-1.3,9.4-2.9,13.9-4.8
		c1-3.5,1.5-7.2,1.5-11c0-4-0.6-7.8-1.6-11.4c-10.1,5.7-21.4,9.2-33.6,10.1c-0.6,2.6-2.9,4.5-5.7,4.5c-2.8,0-5.1-1.9-5.7-4.5
		c-12.2-0.9-23.7-4.5-33.8-10.2C4.6,37.1,4,41,4,45c0,3.8,0.5,7.4,1.5,10.9c4.4,1.9,8.9,3.5,13.6,4.7L25.8,73.3z"/>
	<path id="XMLID_208_" class="st3" d="M69,11.7c-1-0.7-2-1.4-3.1-2c-6.3,2.9-13.4,4.5-20.8,4.5c-7.5,0-14.5-1.6-20.9-4.5
		c-1.1,0.6-2.1,1.3-3.1,2c7.2,3.6,15.4,5.7,24,5.7C53.7,17.3,61.8,15.3,69,11.7z"/>
</g>
</svg>
