<?xml version="1.0" encoding="utf-8"?>
<!-- Generator: Adobe Illustrator 19.0.0, SVG Export Plug-In . SVG Version: 6.00 Build 0)  -->
<svg version="1.1" id="Layer_1" xmlns="http://www.w3.org/2000/svg" xmlns:xlink="http://www.w3.org/1999/xlink" x="0px" y="0px"
	 viewBox="-732 425 453.3 231" style="enable-background:new -732 425 453.3 231;" xml:space="preserve">
<style type="text/css">
	.st0{fill:#FFFFFF;}
	.st1{fill:#0080A9;}
</style>
<g>
	<path class="st0" d="M-609.2,602.2h-1.8v3.6h-1.8v-9.4h3.7c2,0,3.1,1.3,3.1,2.9C-606.1,600.8-607.3,602.2-609.2,602.2
		 M-609.3,597.9h-1.7v2.6h1.7c0.8,0,1.4-0.5,1.4-1.3C-608,598.4-608.5,597.9-609.3,597.9"/>
	<path class="st0" d="M-598.9,605.7l-1.8-3.8h-1.3v3.8h-1.8v-9.4h3.7c1.9,0,3.1,1.3,3.1,2.9c0,1.3-0.8,2.1-1.7,2.5l2.1,4.1H-598.9z
		 M-600.3,597.9h-1.7v2.5h1.7c0.8,0,1.3-0.5,1.3-1.2C-599,598.4-599.5,597.9-600.3,597.9"/>
	<polygon class="st0" points="-594.5,605.7 -594.5,596.3 -588.3,596.3 -588.3,597.9 -592.7,597.9 -592.7,600.1 -589,600.1 
		-589,601.8 -592.7,601.8 -592.7,604.1 -588.3,604.1 -588.3,605.7 	"/>
	<path class="st0" d="M-583.2,605.8c-1.4,0-2.5-0.3-3.4-1.2l1.2-1.2c0.6,0.6,1.4,0.8,2.3,0.8c1.1,0,1.7-0.4,1.7-1.2
		c0-0.3-0.1-0.6-0.3-0.8c-0.2-0.2-0.4-0.3-0.8-0.3l-1.1-0.2c-0.8-0.1-1.4-0.4-1.8-0.8c-0.5-0.5-0.7-1.1-0.7-1.9
		c0-1.7,1.2-2.9,3.3-2.9c1.3,0,2.2,0.3,3.1,1.1l-1.2,1.2c-0.6-0.6-1.3-0.7-1.9-0.7c-1,0-1.5,0.5-1.5,1.2c0,0.2,0.1,0.5,0.3,0.7
		c0.2,0.2,0.5,0.3,0.9,0.4l1.1,0.2c0.9,0.1,1.4,0.4,1.8,0.7c0.5,0.5,0.7,1.2,0.7,2C-579.7,604.8-581.3,605.8-583.2,605.8"/>
	<polygon class="st0" points="-577.3,605.7 -577.3,596.3 -571.1,596.3 -571.1,597.9 -575.5,597.9 -575.5,600.1 -571.8,600.1 
		-571.8,601.8 -575.5,601.8 -575.5,604.1 -571.1,604.1 -571.1,605.7 	"/>
	<polygon class="st0" points="-563.1,605.7 -566.8,599.9 -566.8,605.7 -568.6,605.7 -568.6,596.3 -567,596.3 -563.3,602 
		-563.3,596.3 -561.4,596.3 -561.4,605.7 	"/>
	<polygon class="st0" points="-554.9,597.9 -554.9,605.7 -556.8,605.7 -556.8,597.9 -559.2,597.9 -559.2,596.3 -552.5,596.3 
		-552.5,597.9 	"/>
	<polygon class="st0" points="-550.3,605.7 -550.3,596.3 -544.1,596.3 -544.1,597.9 -548.4,597.9 -548.4,600.1 -544.7,600.1 
		-544.7,601.8 -548.4,601.8 -548.4,604.1 -544.1,604.1 -544.1,605.7 	"/>
	<path class="st0" d="M-535.7,604.8c-0.6,0.6-1.5,0.9-2.5,0.9h-3.4v-9.4h3.4c1,0,1.9,0.3,2.5,0.9c1.1,1.1,1,2.4,1,3.8
		C-534.7,602.4-534.6,603.7-535.7,604.8 M-537,598.5c-0.3-0.4-0.7-0.6-1.4-0.6h-1.4v6.2h1.4c0.6,0,1.1-0.2,1.4-0.6
		c0.3-0.4,0.4-1.1,0.4-2.5C-536.6,599.5-536.6,598.9-537,598.5"/>
	<path class="st0" d="M-524.5,605.7h-4v-9.4h3.8c1.8,0,2.9,1,2.9,2.7c0,1-0.7,1.7-1.2,2c0.6,0.3,1.3,0.9,1.3,2.1
		C-521.6,604.8-522.8,605.7-524.5,605.7 M-524.8,597.9h-1.8v2.2h1.8c0.8,0,1.2-0.4,1.2-1.1C-523.6,598.3-524,597.9-524.8,597.9
		 M-524.7,601.7h-1.9v2.3h1.9c0.8,0,1.2-0.5,1.2-1.2C-523.4,602.3-523.8,601.7-524.7,601.7"/>
	<polygon class="st0" points="-515.4,601.8 -515.4,605.7 -517.3,605.7 -517.3,601.8 -520.1,596.3 -518.1,596.3 -516.3,600.1 
		-514.6,596.3 -512.6,596.3 	"/>
	<path class="st0" d="M-493.6,617.1c0,1.5,0.3,2.6,1.5,2.6c0.5,0,0.9-0.3,1.1-0.6v-1l-0.8-0.1v-0.7h2.8v0.7l-0.6,0.1v2.3h-0.7
		c-0.1-0.2-0.1-0.4-0.3-0.4c-0.3,0-0.7,0.4-1.7,0.4c-1.8,0-2.9-1-2.9-3.3c0-2.2,1.4-3.4,3.1-3.4c0.8,0,1.2,0.3,1.5,0.3
		c0.1,0,0.2-0.1,0.3-0.3h0.6l0.1,2.1h-0.7c-0.3-1.1-0.7-1.5-1.6-1.5C-493.1,614.5-493.6,615.5-493.6,617.1"/>
	<path class="st0" d="M-486.3,615.7c1.2,0,2,0.6,2,2c0,0.1,0,0.4,0,0.5h-2.8c0,0.9,0.2,1.5,1,1.5c0.6,0,0.8-0.3,1.1-0.8l0.7,0.2
		c-0.3,0.9-1,1.4-1.9,1.4c-1.5,0-2.3-0.9-2.3-2.3C-488.6,616.6-487.6,615.7-486.3,615.7 M-485.7,617.6v-0.2c0-0.8-0.1-1.2-0.6-1.2
		c-0.5,0-0.7,0.6-0.7,1.4H-485.7z"/>
	<path class="st0" d="M-481.9,615.7l0.1,0.9h0.1c0.2-0.5,0.6-0.9,1.6-0.9c0.9,0,1.4,0.4,1.4,1.5v2.5l0.6,0.1v0.6h-2.4v-0.6l0.4-0.1
		v-2.3c0-0.5-0.1-0.8-0.6-0.8c-0.5,0-0.9,0.3-0.9,1v2.1l0.5,0.1v0.6h-2.5v-0.6l0.6-0.1v-3.2l-0.6-0.1v-0.6L-481.9,615.7z"/>
	<path class="st0" d="M-475.5,615.7c1.2,0,2,0.6,2,2c0,0.1,0,0.4,0,0.5h-2.8c0,0.9,0.2,1.5,1,1.5c0.6,0,0.8-0.3,1.1-0.8l0.7,0.2
		c-0.3,0.9-1,1.4-1.9,1.4c-1.5,0-2.3-0.9-2.3-2.3C-477.8,616.6-476.8,615.7-475.5,615.7 M-475,617.6v-0.2c0-0.8-0.1-1.2-0.6-1.2
		c-0.5,0-0.7,0.6-0.7,1.4H-475z"/>
	<polygon class="st0" points="-469.1,616.7 -466.9,616.7 -466.9,614.7 -467.5,614.6 -467.5,613.9 -464.8,613.9 -464.8,614.6 
		-465.4,614.7 -465.4,619.6 -464.8,619.7 -464.8,620.4 -467.5,620.4 -467.5,619.7 -466.9,619.6 -466.9,617.5 -469.1,617.5 
		-469.1,619.6 -468.5,619.7 -468.5,620.4 -471.3,620.4 -471.3,619.7 -470.7,619.6 -470.7,614.7 -471.3,614.6 -471.3,613.9 
		-468.5,613.9 -468.5,614.6 -469.1,614.7 	"/>
	<path class="st0" d="M-461.6,618v-0.7c0-0.7-0.2-1.1-0.8-1.1c-0.3,0-0.5,0.1-0.5,0.3c0,0,0,0.1,0,0.1h0.4c0,0.1,0.1,0.2,0.1,0.4
		c0,0.4-0.2,0.6-0.7,0.6c-0.5,0-0.7-0.3-0.7-0.7c0-0.7,0.7-1.2,1.9-1.2c1.2,0,1.9,0.4,1.9,1.7v1.9c0,0.3,0,0.5,0.2,0.5
		c0.1,0,0.2,0,0.3-0.1l0.1,0.5c-0.2,0.1-0.6,0.3-1,0.3c-0.6,0-0.8-0.2-0.9-0.7c-0.2,0.3-0.5,0.7-1.3,0.7c-0.7,0-1.4-0.3-1.4-1.2
		c0-1,0.7-1.3,1.9-1.3H-461.6z M-461.6,619v-0.6h-0.4c-0.6,0-0.7,0.2-0.7,0.7c0,0.4,0.1,0.6,0.5,0.6
		C-461.9,619.8-461.6,619.6-461.6,619"/>
	<path class="st0" d="M-456.5,618v-0.7c0-0.7-0.2-1.1-0.8-1.1c-0.3,0-0.5,0.1-0.5,0.3c0,0,0,0.1,0,0.1h0.4c0,0.1,0.1,0.2,0.1,0.4
		c0,0.4-0.2,0.6-0.7,0.6c-0.5,0-0.7-0.3-0.7-0.7c0-0.7,0.7-1.2,1.9-1.2c1.2,0,1.9,0.4,1.9,1.7v1.9c0,0.3,0,0.5,0.2,0.5
		c0.1,0,0.2,0,0.3-0.1l0.1,0.5c-0.2,0.1-0.6,0.3-1,0.3c-0.6,0-0.8-0.2-0.9-0.7c-0.2,0.3-0.5,0.7-1.3,0.7c-0.7,0-1.4-0.3-1.4-1.2
		c0-1,0.7-1.3,1.9-1.3H-456.5z M-456.5,619v-0.6h-0.4c-0.6,0-0.7,0.2-0.7,0.7c0,0.4,0.1,0.6,0.5,0.6
		C-456.8,619.8-456.5,619.6-456.5,619"/>
	<path class="st0" d="M-454.1,618.9h0.6c0.1,0.6,0.6,1,1.3,1c0.5,0,0.8-0.2,0.8-0.5c0-0.4-0.4-0.5-0.9-0.6c-0.8-0.1-1.7-0.3-1.7-1.5
		c0-1,0.7-1.6,1.7-1.6c0.4,0,0.7,0.1,0.9,0.2c0.1,0,0.1,0.1,0.2,0.1c0.1,0,0.1-0.1,0.2-0.2h0.5v1.4h-0.6c-0.2-0.6-0.6-0.9-1.2-0.9
		c-0.4,0-0.7,0.1-0.7,0.5c0,0.4,0.4,0.5,0.9,0.6c0.8,0.1,1.8,0.3,1.8,1.6c0,1-0.7,1.6-1.7,1.6c-0.6,0-0.9-0.2-1.1-0.3
		c-0.1,0-0.1,0-0.2,0c-0.1,0-0.1,0.1-0.2,0.3h-0.5V618.9z"/>
	<path class="st0" d="M-443.4,613.9l0.1,1.7h-0.3c-0.2-1.1-0.6-1.3-1.5-1.3h-1.1v2.7h0.6c0.8,0,1-0.3,1.1-1.1h0.2v2.7h-0.2
		c-0.1-1-0.3-1.2-1.2-1.2h-0.5v2.7l1.3,0.1v0.3h-2.8v-0.3l0.8-0.1v-5.8l-0.8-0.1v-0.3H-443.4z"/>
	<path class="st0" d="M-440.8,615.7c1.3,0,2,1,2,2.4c0,1.4-0.8,2.4-2,2.4c-1.3,0-2-1-2-2.4C-442.8,616.7-442,615.7-440.8,615.7
		 M-440.8,616.1c-1,0-1.3,1-1.3,1.9c0,1,0.2,2,1.3,2c1,0,1.3-1,1.3-1.9C-439.6,617.2-439.8,616.1-440.8,616.1"/>
	<path class="st0" d="M-436.9,619c0,0.7,0.2,1,0.9,1c0.7,0,1.3-0.5,1.3-1.3v-2.5l-0.7-0.1v-0.3l1.3,0v4.2l0.6,0.1v0.3h-1.2l-0.1-0.8
		c-0.3,0.4-0.8,0.9-1.6,0.9c-1,0-1.4-0.5-1.4-1.5v-2.8l-0.6-0.1v-0.3l1.3,0V619z"/>
	<path class="st0" d="M-431.4,615.8l0,0.9c0.3-0.4,0.8-0.9,1.6-0.9c1,0,1.4,0.5,1.4,1.6v2.7l0.6,0.1v0.3h-2v-0.3l0.7-0.1v-2.7
		c0-0.7-0.2-1.1-0.9-1.1c-0.7,0-1.4,0.5-1.4,1.2v2.6l0.7,0.1v0.3h-2v-0.3l0.6-0.1v-3.8l-0.6-0.1v-0.3L-431.4,615.8z"/>
	<path class="st0" d="M-423.9,616.3v-2.4l-0.8-0.1v-0.3l1.4,0v6.5l0.7,0.1v0.3h-1.3l0-0.7c-0.2,0.4-0.7,0.8-1.5,0.8
		c-1.2,0-1.8-0.9-1.8-2.3c0-1.6,0.8-2.5,1.9-2.5C-424.7,615.7-424.2,615.9-423.9,616.3 M-423.9,618.8v-1.4c0-0.9-0.6-1.2-1.2-1.2
		c-1,0-1.3,0.8-1.3,1.9c0,0.9,0.2,1.9,1.2,1.9C-424.5,620-423.9,619.5-423.9,618.8"/>
	<path class="st0" d="M-419.3,618v-0.6c0-0.8-0.2-1.3-1-1.3c-0.3,0-0.9,0-0.9,0.4c0,0,0,0.1,0,0.1h0.3c0,0.1,0.1,0.2,0.1,0.3
		c0,0.3-0.2,0.4-0.5,0.4c-0.3,0-0.5-0.2-0.5-0.5c0-0.6,0.6-1.1,1.5-1.1c1.1,0,1.5,0.5,1.5,1.7v2.1c0,0.4,0.1,0.5,0.3,0.5
		c0.1,0,0.2,0,0.3-0.1l0.1,0.3c-0.2,0.1-0.3,0.1-0.5,0.1c-0.4,0-0.7-0.2-0.8-0.7c-0.3,0.5-0.9,0.7-1.4,0.7c-0.7,0-1.3-0.3-1.3-1.2
		c0-1,0.9-1.4,2-1.4H-419.3z M-419.3,619v-0.7h-0.6c-0.9,0-1.2,0.4-1.2,0.9c0,0.5,0.2,0.8,0.8,0.8C-419.8,620-419.3,619.7-419.3,619
		"/>
	<path class="st0" d="M-417.1,616.2h-0.7v-0.4h0.7v-1.2l0.6-0.2h0.1v1.4h1v0.4h-1v3.1c0,0.5,0.1,0.7,0.5,0.7c0.3,0,0.5-0.1,0.7-0.7
		l0.3,0.1c-0.2,0.7-0.5,1-1.1,1c-0.7,0-1.1-0.4-1.1-1V616.2z"/>
	<path class="st0" d="M-413,615.8v4.2l0.7,0.1v0.3h-2.1v-0.3l0.7-0.1v-3.8l-0.7-0.1v-0.3L-413,615.8z M-413.4,613.7
		c0.3,0,0.5,0.1,0.5,0.5c0,0.3-0.2,0.5-0.5,0.5c-0.3,0-0.5-0.2-0.5-0.5C-413.9,613.9-413.7,613.7-413.4,613.7"/>
	<path class="st0" d="M-409.6,615.7c1.3,0,2,1,2,2.4c0,1.4-0.8,2.4-2,2.4c-1.3,0-2-1-2-2.4C-411.6,616.7-410.8,615.7-409.6,615.7
		 M-409.6,616.1c-1,0-1.3,1-1.3,1.9c0,1,0.2,2,1.3,2c1,0,1.3-1,1.3-1.9C-408.3,617.2-408.5,616.1-409.6,616.1"/>
	<path class="st0" d="M-405.6,615.8l0,0.9c0.3-0.4,0.8-0.9,1.6-0.9c1,0,1.4,0.5,1.4,1.6v2.7l0.6,0.1v0.3h-2v-0.3l0.7-0.1v-2.7
		c0-0.7-0.2-1.1-0.9-1.1c-0.7,0-1.4,0.5-1.4,1.2v2.6l0.7,0.1v0.3h-2v-0.3l0.6-0.1v-3.8l-0.6-0.1v-0.3L-405.6,615.8z"/>
	<polygon class="st0" points="-472.3,584.3 -479.9,597.5 -495.3,597.5 -498.1,602.3 -482.7,602.3 -485.9,607.9 -480.3,607.9 
		-466.7,584.3 	"/>
	<polygon class="st0" points="-461,584.3 -468.6,597.5 -472.7,597.5 -475.5,602.3 -471.4,602.3 -474.6,607.9 -469,607.9 
		-455.4,584.3 	"/>
	<polygon class="st0" points="-452.7,584.3 -466.3,607.9 -460.7,607.9 -447.1,584.3 	"/>
	<polygon class="st0" points="-436.5,584.3 -446.3,601.4 -446.3,585.6 -451,593.7 -451,597.5 -453.2,597.5 -456,602.3 -451,602.3 
		-451,607.9 -444.5,607.9 -430.9,584.3 	"/>
	<path class="st0" d="M-417,589.3h15.3l2.9-5h-20.4c-1,0-1.9,0.5-2.4,1.4l-5.5,9.5c-0.8,1.4,0.2,3.2,1.8,3.2h7.3l-2.5,4.1
		c-0.2,0.4-0.7,0.6-1.1,0.6h-8.5v-17.4l-4.7,8.1l0,3.6v0l-2.2,0l-2.8,4.8l5,0v0l0,5.6h3.6h11.7c1,0,1.9-0.5,2.4-1.4l5.8-10
		c0.8-1.4-0.2-3.1-1.8-3.1h-7.1l2.1-3.5C-417.7,589.5-417.4,589.3-417,589.3"/>
	<path class="st1" d="M-285.7,528h-27.1c-0.6,0-1.1-0.5-1.1-1.1v-13.7c0-0.6,0.5-1.1,1.1-1.1h21.2c1.3,0,2.3-1,2.3-2.3v-11.4
		c0-1.3-1-2.3-2.3-2.3h-21.2c-0.6,0-1.1-0.5-1.1-1.1v-13.7c0-0.6,0.5-1.1,1.1-1.1h26.7c1.3,0,2.3-1,2.3-2.3v-11.4
		c0-1.3-1-2.3-2.3-2.3h-41.5c-1.3,0-2.3,1-2.3,2.3v8.3c-0.9-1.4-1.9-2.8-3.2-4c-4.5-4.5-10.2-6.6-17.4-6.6h-25.2
		c-1.3,0-2.3,1-2.3,2.3v64.8l-17.5-65.4c-0.3-1.1-1-1.7-2.2-1.7H-413c-1,0-1.8,0.6-2.2,1.7l-14.2,52.6c-0.3-0.8-1.2-1.4-2.1-1.4
		h-11.7c-1.4,0-2.5,1.2-2.5,2.6c-0.1,5.8-4.4,9.8-10.7,9.8c-5,0-8.4-1.8-10.1-5.5c-1-2.4-1.6-8.9-1.6-19.7c0-10.8,0.6-17.3,1.6-19.7
		c1.7-3.7,5-5.5,10.1-5.5c6.3,0,10.6,4,10.7,9.8c0,1.4,1.1,2.6,2.5,2.6h11.7c1.2,0,2.3-1,2.3-2.2c0-8-2.5-14.5-7.7-19.2
		c-5.1-4.7-11.7-7.1-19.6-7.1c-11.9,0-20.7,5.9-24.8,15.2c-0.5,1.1-1,2.5-1.4,4.1c-2-11.6-11.2-19.3-25.3-19.3
		c-7.9,0-14.3,2.2-19.2,6.4c-1.6,1.4-2.8,2.9-3.9,4.5v-7.3c0-1.3-1-2.3-2.3-2.3h-40c-1.3,0-2.3,1-2.3,2.3v75.5c0,1.3,1,2.3,2.3,2.3
		h11.4c1.3,0,2.3-1,2.3-2.3v-28.6c0-0.6,0.5-1.1,1.1-1.1h18.8c1.3,0,2.3-1,2.3-2.3v-11.4c0-1.3-1-2.3-2.3-2.3h-18.8
		c-0.6,0-1.1-0.5-1.1-1.1v-13.7c0-0.6,0.5-1.1,1.1-1.1h24.7c-0.4,1.7-0.6,3.4-0.6,5.3c0,12.6,6.9,20.7,20.5,24.3
		c7,1.8,11.6,3.5,13.7,5.1c2.1,1.6,3.1,3.9,3.1,6.7c0,4.9-4.5,8.2-11.3,8.2c-6.5,0-11.1-3.8-11.1-9.4V518c0-1.3-1-2.3-2.3-2.3H-534
		c-1.3,0-2.3,1-2.3,2.3v2.3c0,7.4,2.6,13.4,7.8,18.1c5.1,4.7,11.8,7,20,7c8.3,0,15.1-2.3,20.2-6.9c3.1-2.8,5.2-6,6.4-9.9
		c0.2,0.5,0.4,1.1,0.6,1.5c4.1,9.3,12.9,15.2,24.8,15.2c7.9,0,14.4-2.4,19.6-7.2c1.2-1.1,2.2-2.2,3.1-3.5l-1.5,5.4
		c-0.3,1.1-0.5,1.9-0.5,2.3c0,1.1,0.8,1.7,2.3,1.7h12c1.1,0,1.8-0.6,2.2-1.7l4.5-19.7h18.8l4.2,19.7c0.3,1.1,1.1,1.7,2.2,1.7h12
		c0.4,0,0.7-0.1,1-0.1c0.2,0.1,0.4,0.1,0.7,0.1h11.4c1.3,0,2.3-1,2.3-2.3v-28.6c0-0.6,0.5-1.1,1.1-1.1h10.3c7.2,0,12.9-2.2,17.4-6.6
		c1.2-1.2,2.3-2.6,3.2-4v40.4c0,1.3,1,2.3,2.3,2.3h42c1.3,0,2.3-1,2.3-2.3v-11.4C-283.4,529.1-284.4,528-285.7,528 M-484.3,506.5
		c-3.3-4.7-9-8.1-17.4-10.4c-12.7-3.2-16.1-5.8-16.1-10.3c0-4.9,3.5-7.5,10-7.5c5.6,0,9.6,3.5,9.6,8.6v0.6c0,1.3,1,2.3,2.3,2.3h11.6
		c0.2,0,0.5-0.1,0.7-0.1c-0.4,4-0.6,8.8-0.6,14.4C-484.4,504.9-484.4,505.7-484.3,506.5 M-411.2,507.9l5.2-22.6
		c0.3-1.2,1.9-1.2,2.2,0l4.8,22.6H-411.2z M-351.1,496h-9.7c-0.8,0-1.1-0.3-1.1-1.1v-13.7c0-0.8,0.3-1.1,1.1-1.1h9.7
		c4.7,0,8,3.3,8,8S-346.4,496-351.1,496"/>
	<path class="st1" d="M-631.5,526.9c-13.5,2.5-27.3,1.2-39.9-4.4c-0.9-0.4-2,0.2-2,1.3v12.6c0,0.5,0.3,1.1,0.8,1.3
		c13.1,6.1,27.5,7.6,41.5,4.9c0.6-0.1,1-0.6,1-1.2V528C-630.1,527.3-630.8,526.7-631.5,526.9"/>
	<path class="st1" d="M-600.8,520.6c-7.5,0.2-14.5,2.1-21.6,4c-0.5,0.1-0.9,0.6-0.9,1.1V539c0,0.8,0.7,1.3,1.5,1.1
		c6.9-1.9,13.7-3.6,21-3.8c5.9-0.2,13.6-0.5,18.2,3.6c0.9,0.8,2.3,0.2,2.3-1l0.1-11.2c-0.1-0.2-0.1-0.5-0.2-0.7
		C-584.3,520-593.8,520.4-600.8,520.6"/>
	<path class="st1" d="M-631.5,499.1c-13.5,2.5-27.3,1.2-39.9-4.4c-0.9-0.4-2,0.2-2,1.3v12.6c0,0.5,0.3,1.1,0.8,1.3
		c13.1,6.1,27.5,7.6,41.5,4.9c0.6-0.1,1-0.6,1-1.2v-13.3C-630.1,499.5-630.8,498.9-631.5,499.1"/>
	<path class="st1" d="M-600.8,492.8c-7.5,0.2-14.5,2.1-21.6,4c-0.5,0.1-0.9,0.6-0.9,1.1v13.2c0,0.8,0.7,1.3,1.5,1.1
		c6.9-1.9,13.7-3.6,21-3.8c5.9-0.2,13.6-0.5,18.2,3.6c0.9,0.8,2.3,0.2,2.3-1l0.1-11.2c-0.1-0.2-0.1-0.5-0.2-0.7
		C-584.3,492.2-593.8,492.6-600.8,492.8"/>
	<path class="st1" d="M-631.5,471.3c-13.5,2.5-27.3,1.2-39.9-4.4c-0.9-0.4-2,0.2-2,1.3v12.6c0,0.5,0.3,1.1,0.8,1.3
		c13.1,6.1,27.5,7.6,41.5,4.9c0.6-0.1,1-0.6,1-1.2v-13.3C-630.1,471.7-630.8,471.1-631.5,471.3"/>
	<path class="st1" d="M-600.8,465c-7.5,0.2-14.5,2.1-21.6,4c-0.5,0.1-0.9,0.6-0.9,1.1v13.2c0,0.8,0.7,1.3,1.5,1.1
		c6.9-1.9,13.7-3.6,21-3.8c5.9-0.2,13.6-0.5,18.2,3.6c0.9,0.8,2.3,0.2,2.3-1l0.1-11.2c-0.1-0.2-0.1-0.5-0.2-0.7
		C-584.3,464.4-593.8,464.8-600.8,465"/>
	<path class="st0" d="M-295.5,552.4c-0.6-0.2-1-0.3-1-0.3c-0.6-0.2-1-0.3-1.3-0.4c-0.3-0.1-0.5-0.2-0.6-0.4
		c-0.1-0.1-0.2-0.3-0.2-0.4c0-0.2,0.1-0.4,0.3-0.5c0.2-0.1,0.4-0.2,0.7-0.2c0.5,0,0.8,0.1,1.1,0.4c0.3,0.2,0.4,0.5,0.4,0.8v0
		c0,0.1,0,0.1,0.1,0.2c0,0,0.1,0.1,0.2,0.1h2.3c0.1,0,0.1,0,0.2-0.1s0.1-0.1,0.1-0.2v-0.1c0-0.7-0.2-1.3-0.5-1.8
		c-0.4-0.5-0.8-0.9-1.5-1.2c-0.6-0.3-1.3-0.4-2.1-0.4c-0.7,0-1.4,0.1-2,0.4c-0.6,0.3-1,0.6-1.4,1.1c-0.3,0.5-0.5,1-0.5,1.6
		c0,0.9,0.3,1.6,1,2.1c0.7,0.5,1.5,0.9,2.4,1.2l0.4,0.1c0.5,0.2,0.9,0.3,1.1,0.4c0.2,0.1,0.3,0.3,0.3,0.5c0,0.2-0.1,0.4-0.2,0.5
		c-0.2,0.2-0.4,0.2-0.8,0.2c-0.5,0-0.9-0.1-1.2-0.3c-0.3-0.2-0.4-0.5-0.4-0.7v-0.1c0-0.1,0-0.1-0.1-0.2c0,0-0.1-0.1-0.2-0.1h-2.3
		c-0.1,0-0.1,0-0.2,0.1c0,0-0.1,0.1-0.1,0.2v0.2c0,0.7,0.2,1.2,0.5,1.7c0.3,0.5,0.8,0.9,1.4,1.2c0.6,0.3,1.3,0.4,2.2,0.4
		c0.8,0,1.5-0.1,2.1-0.4c0.6-0.3,1.1-0.6,1.4-1.1c0.3-0.5,0.5-1,0.5-1.7c0-0.7-0.2-1.3-0.6-1.7
		C-294.4,552.9-294.9,552.6-295.5,552.4"/>
	<path class="st0" d="M-283.6,547.9h-2.3c-0.1,0-0.2,0-0.3,0.1l-1.9,3c0,0.1-0.1,0.1-0.1,0l-1.9-3c-0.1-0.1-0.1-0.1-0.3-0.1h-2.3
		c-0.1,0-0.1,0-0.2,0.1s-0.1,0.1-0.1,0.2v9.9c0,0.1,0,0.1,0.1,0.2c0,0,0.1,0.1,0.2,0.1h2.3c0.1,0,0.1,0,0.2-0.1c0,0,0.1-0.1,0.1-0.2
		v-5.3c0,0,0-0.1,0-0.1c0,0,0,0,0.1,0l1,1.6c0.1,0.1,0.1,0.1,0.3,0.1h1.1c0.1,0,0.2,0,0.3-0.1l1-1.6c0,0,0,0,0.1,0c0,0,0,0,0,0.1
		v5.3c0,0.1,0,0.1,0.1,0.2c0,0,0.1,0.1,0.2,0.1h2.3c0.1,0,0.1,0,0.2-0.1c0,0,0.1-0.1,0.1-0.2v-9.9c0-0.1,0-0.1-0.1-0.2
		C-283.5,547.9-283.6,547.9-283.6,547.9"/>
	<path class="st1" d="M-688.6,508.2c7.9-4.6,11.9-11.3,11.9-20.2c0-7.2-2.2-12.9-6.6-17.4c-4.5-4.5-10.2-6.6-17.4-6.6h-25.2
		c-1.3,0-2.3,1-2.3,2.3v75.5c0,1.3,1,2.3,2.3,2.3h11.4c1.3,0,2.3-1,2.3-2.3v-60.6c0-0.6,0.5-1.1,1.1-1.1h9.5c4.3,0,8.1,3.3,8.2,7.7
		c0.2,4.9-3.2,8.3-8,8.3h-6.1c-1.6,0-2.6,1.5-2.1,3l15.4,43c0.6,1.4,1.6,2.1,2.9,2.1h11.4c1.7,0,2.9-1.1,2.9-2.6
		c0-0.5-0.2-1.1-0.6-2.2l-11.8-27.2c-0.3-0.9-0.6-1.6-0.6-2.2C-689.8,509.3-689.4,508.7-688.6,508.2"/>
</g>
</svg>
