<?xml version="1.0" encoding="utf-8"?>
<!-- Generator: Adobe Illustrator 19.0.0, SVG Export Plug-In . SVG Version: 6.00 Build 0)  -->
<svg version="1.1" id="Layer_1" xmlns="http://www.w3.org/2000/svg" xmlns:xlink="http://www.w3.org/1999/xlink" x="0px" y="0px"
	 viewBox="0 0 315 40" style="enable-background:new 0 0 315 40;" xml:space="preserve">
<style type="text/css">
	.st0{fill:#FFFFFF;}
</style>
<g id="XMLID_136_">
	<polygon id="XMLID_137_" class="st0" points="234.4,0.3 234.4,40 244.6,40 244.6,20.1 244.6,0.3 	"/>
</g>
<g id="XMLID_132_">
	<polygon id="XMLID_133_" class="st0" points="136.5,0 136.5,40 146.7,40 146.7,20 146.7,0 	"/>
</g>
<g id="XMLID_130_">
	<polygon id="XMLID_131_" class="st0" points="163.1,29.8 136.5,29.8 136.5,40 149.8,40 163.1,40 	"/>
</g>
<g id="XMLID_122_">
	<g id="XMLID_126_">
		<polygon id="XMLID_127_" class="st0" points="66.2,0 66.2,40 76.4,40 76.4,20 76.4,0 		"/>
	</g>
	<g id="XMLID_124_">
		<polygon id="XMLID_125_" class="st0" points="87.3,0 87.3,40 97.5,40 97.5,20 97.5,0 		"/>
	</g>
	<polygon id="XMLID_123_" class="st0" points="97.5,37.3 76.4,0 67.5,5 87.3,40 97.5,40 	"/>
</g>
<g id="XMLID_116_">
	<g id="XMLID_120_">
		<polygon id="XMLID_121_" class="st0" points="283.4,0.3 283.4,40 293.6,40 293.6,20.1 293.6,0.3 		"/>
	</g>
	<g id="XMLID_118_">
		<polygon id="XMLID_119_" class="st0" points="304.4,0.3 304.4,40 314.5,40 314.5,20.1 314.5,0.3 		"/>
	</g>
	<polygon id="XMLID_117_" class="st0" points="314.5,37.3 293.6,0.3 284.7,5.2 304.4,40 314.5,40 	"/>
</g>
<g id="XMLID_111_">
	<g id="XMLID_112_">
		<path id="XMLID_113_" class="st0" d="M263.8,40c-8.3,0-15.3-6.8-15.3-15.3v-9.1c0-8.3,6.8-15.3,15.3-15.3
			c8.3,0,15.3,6.8,15.3,15.3v9.3C279.1,33.2,272.4,40,263.8,40z M263.8,10.4c-2.8,0-5.2,2.2-5.2,5.2v9.3c0,2.8,2.2,5.2,5.2,5.2
			c3,0,5.2-2.2,5.2-5.2v-9.3C269,12.8,266.6,10.4,263.8,10.4z"/>
	</g>
</g>
<g id="XMLID_106_">
	<g id="XMLID_109_">
		<polygon id="XMLID_110_" class="st0" points="0,0 0,40 10.2,40 10.2,20 10.2,0 		"/>
	</g>
	<g id="XMLID_107_">
		<polygon id="XMLID_108_" class="st0" points="20.8,0 10.2,20 20.8,40 32.4,40 21.8,20 32.4,0 		"/>
	</g>
</g>
<g id="XMLID_99_">
	<g id="XMLID_100_">
		<path id="XMLID_101_" class="st0" d="M46.2,40c-8.4,0-15.4-6.8-15.4-15.4v-9.2C30.8,7,37.6,0,46.2,0c8.4,0,15.4,6.8,15.4,15.4v9.4
			C61.6,33.2,54.8,40,46.2,40z M46.2,10.2c-2.8,0-5.2,2.2-5.2,5.2v9.4c0,2.8,2.2,5.2,5.2,5.2s5.2-2.2,5.2-5.2v-9.4
			C51.4,12.6,49,10.2,46.2,10.2z"/>
	</g>
</g>
<g id="XMLID_128_">
	<g id="XMLID_129_">
		<path id="XMLID_134_" class="st0" d="M132.4,24.8c0,8.4-6.8,15.2-15.4,15.2c-8.4,0-15.4-6.8-15.4-15.4v-9.2C101.6,7,108.4,0,117,0
			c8.4,0,15.4,6.8,15.4,15.4h-10.2c0-2.8-2.4-5.2-5.2-5.2c-2.8,0-5.2,2.2-5.2,5.2v9.4c0,2.8,2.2,5.2,5.2,5.2s5.2-2.2,5.2-5.2H132.4z
			"/>
	</g>
</g>
<g id="XMLID_89_">
	<g id="XMLID_90_">
		<path id="XMLID_91_" class="st0" d="M197.5,0.1v24.7c0,8.4-6.8,15.2-15.4,15.2c-8.4,0-15.4-6.8-15.4-15.4V0.1h10.2v24.7
			c0,2.8,2.2,5.2,5.2,5.2s5.2-2.2,5.2-5.2V0.1H197.5z"/>
	</g>
</g>
<path id="XMLID_2_" class="st0" d="M218.6,15h-5c-1.4,0-2.5-1.1-2.5-2.5c0-1.4,1.1-2.5,2.5-2.5h15V0h-15c-6.9,0-12.5,5.6-12.5,12.5
	S206.7,25,213.6,25h5c1.4,0,2.5,1.1,2.5,2.5c0,1.4-1.1,2.5-2.5,2.5h-15v10h15c6.9,0,12.5-5.6,12.5-12.5S225.5,15,218.6,15z"/>
</svg>
