<?xml version="1.0" encoding="utf-8"?>
<!-- Generator: Adobe Illustrator 19.0.0, SVG Export Plug-In . SVG Version: 6.00 Build 0)  -->
<svg version="1.1" id="Layer_1" xmlns="http://www.w3.org/2000/svg" xmlns:xlink="http://www.w3.org/1999/xlink" x="0px" y="0px"
	 viewBox="0 0 300 40" style="enable-background:new 0 0 300 40;" xml:space="preserve">
<style type="text/css">
	.st0{fill:#FFFFFF;}
	.st1{fill:none;}
</style>
<g id="XMLID_23_">
	<polygon id="XMLID_13_" class="st0" points="0,0 0,40 10.2,40 10.2,20 10.2,0 	"/>
	<polygon id="XMLID_12_" class="st0" points="20.8,0 10.2,20 20.8,40 32.4,40 21.8,20 32.4,0 	"/>
</g>
<g id="XMLID_20_">
	<path id="XMLID_16_" class="st1" d="M128.1,29.9c3,0,5.2-2.2,5.2-5.2v-1l-10.4-2.5v3.6C122.9,27.5,125.1,29.9,128.1,29.9z"/>
	<path id="XMLID_11_" class="st0" d="M133.3,24.7c0,3-2.2,5.2-5.2,5.2s-5.2-2.4-5.2-5.2v-3.6l-10.2-2.5v5.9c0,8.6,7,15.4,15.4,15.4
		c8.1,0,14.6-6,15.3-13.8l-10.1-2.5V24.7z"/>
	<polygon id="XMLID_10_" class="st0" points="124.9,0 114.7,0 114.7,18.6 124.9,21.1 	"/>
	<path id="XMLID_9_" class="st0" d="M145.5,0h-10.2v23.7l10.1,2.5c0-0.5,0.1-0.9,0.1-1.4V0z"/>
</g>
<g id="XMLID_19_">
	<polygon id="XMLID_8_" class="st0" points="156,29.2 156,40 166.2,40 166.2,31.7 	"/>
	<polygon id="XMLID_7_" class="st0" points="168.2,20 168.2,10.2 177.2,10.2 177.2,0 170.9,0 148.9,0 148.9,10.2 158,10.2 158,29.2 
		168.2,31.7 	"/>
</g>
<g id="XMLID_22_">
	<polygon id="XMLID_6_" class="st0" points="35.4,40 54.7,40 60.1,29.8 50.6,29.8 55.3,16.4 63.7,40 75.3,40 63.5,6.7 48.5,3.1 	"/>
	<polygon id="XMLID_5_" class="st0" points="51.6,0 50.5,3.1 65.5,6.7 63.1,0 	"/>
</g>
<g id="XMLID_21_">
	<path id="XMLID_15_" class="st1" d="M88.4,20.6h5.2c2.8,0,5.2-2.4,5.2-5.2c0,0,0,0,0-0.1l-10.4-2.5V20V20.6z"/>
	<path id="XMLID_14_" class="st1" d="M93.6,10.2h-5.2v2.6l10.4,2.5C98.8,12.6,96.6,10.2,93.6,10.2z"/>
	<path id="XMLID_4_" class="st0" d="M98.8,15.4c0,2.8-2.4,5.2-5.2,5.2h-5.2V20v-7.2l-10.2-2.5V40h10.2v-9.2h5.2
		c7.8,0,14-5.7,15.2-13L98.8,15.4C98.8,15.4,98.8,15.4,98.8,15.4z"/>
	<path id="XMLID_3_" class="st0" d="M95.6,0h-5.2h-4h-6.2v10.3l10.2,2.5v-2.6h5.2c3,0,5.2,2.4,5.2,5.1l10,2.4
		c0.1-0.8,0.2-1.6,0.2-2.4C111,6.8,104,0,95.6,0z"/>
</g>
<g id="XMLID_1_">
	<path id="XMLID_17_" class="st0" d="M180.7,0v10.2h10.2c3,0,5.2,2.4,5.2,5.2s-2.4,5.2-5.2,5.2h-5.2v10.2h5.2
		c8.6,0,15.4-7,15.4-15.4c0-8.6-7-15.4-15.4-15.4H180.7v10.2"/>
	<rect id="XMLID_2_" x="185.7" y="34.2" class="st0" width="10.2" height="5.8"/>
</g>
</svg>
